<svg xmlns="http://www.w3.org/2000/svg" width="32" height="32" viewBox="0 0 24 24" fill="none" stroke="#00ff88" stroke-width="1.8" stroke-linecap="round" stroke-linejoin="round">
  <path d="M12 3c-1.7 0-3 1.3-3 3v2.5c0 .6-.2 1.1-.5 1.6C7.5 11.3 7 12.4 7 13.7 7 16.6 9.2 19 12 19s5-2.4 5-5.3c0-1.3-.5-2.4-1.5-3.6-.3-.4-.5-1-.5-1.6V6c0-1.7-1.3-3-3-3z"/>
  <path d="M9.5 20.5 8 22M14.5 20.5 16 22"/>
  <circle cx="10" cy="7.5" r=".6" fill="#00ff88"/>
  <circle cx="14" cy="7.5" r=".6" fill="#00ff88"/>
</svg>












